Coordinates
version=1
nRows=19
nColumns=24
inDegrees=yes

Units are S.I. units (second, meters, Newtons, ...)
Angles are in degrees.

endheader
time	pelvis_tilt	pelvis_list	pelvis_rotation	pelvis_tx	pelvis_ty	pelvis_tz	hip_flexion_r	hip_adduction_r	hip_rotation_r	knee_angle_r	ankle_angle_r	subtalar_angle_r	mtp_angle_r	hip_flexion_l	hip_adduction_l	hip_rotation_l	knee_angle_l	ankle_angle_l	subtalar_angle_l	mtp_angle_l	lumbar_extension	lumbar_bending	lumbar_rotation
      1.14416667	     -0.48743417	      1.88699750	     -4.41735403	      0.12949335	      1.06408268	      0.26556664	     15.40239424	     -5.72161563	     -5.33753109	    -71.03621336	      1.78641277	     -0.01701657	      9.26000156	     17.01399537	      2.53423503	      1.54877058	    -26.08136920	     12.97188767	      2.66293256	      4.23347494	    -11.43513813	     -3.21023393	      0.43796127
      1.14833333	     -0.48445997	      1.72463684	     -4.46347697	      0.13513569	      1.06571449	      0.26560643	     15.91595294	     -5.45458057	     -5.45515579	    -70.67434221	      2.12819933	      0.27013733	      9.27051502	     16.42590902	      2.36225074	      1.52489790	    -25.63133107	     13.12236013	      2.75669280	      4.24403665	    -11.42344588	     -3.02509322	      0.41395314
      1.15250000	     -0.48368367	      1.55456449	     -4.50011278	      0.14076708	      1.06730747	      0.26564442	     16.41415770	     -5.17739314	     -5.58508180	    -70.24592369	      2.46974441	      0.57325838	      9.28616943	     15.84066025	      2.18239530	      1.50333494	    -25.18017149	     13.26957741	      2.85126128	      4.25522232	    -11.41099335	     -2.82997429	      0.38610880
      1.15666667	     -0.47908610	      1.39087005	     -4.53267223	      0.14640373	      1.06890019	      0.26568583	     16.89057826	     -4.90513253	     -5.71809013	    -69.74915860	      2.80677652	      0.88776221	      9.30687159	     15.24307730	      2.01077365	      1.48505020	    -24.70719728	     13.40188024	      2.94257020	      4.26667171	    -11.40062847	     -2.63966486	      0.35400829
      1.16083333	     -0.48048039	      1.22851487	     -4.56153891	      0.15204163	      1.07043776	      0.26571713	     17.35904180	     -4.63613747	     -5.86029567	    -69.19536119	      3.14139881	      1.20003893	      9.32969528	     14.65051371	      1.84082320	      1.46229376	    -24.22856673	     13.51566189	      3.01268216	      4.27604326	    -11.38015864	     -2.43744734	      0.32660034
      1.16500000	     -0.45672105	      1.08000144	     -4.57523506	      0.15766104	      1.07197866	      0.26574191	     17.78180112	     -4.38670288	     -6.01178921	    -68.57923510	      3.48415276	      1.56431962	      9.36534724	     14.03000277	      1.69232769	      1.46077921	    -23.73997484	     13.64825672	      3.10339768	      4.29130163	    -11.40057338	     -2.26623678	      0.27004278
      1.16916667	     -0.44686745	      0.91009664	     -4.58291855	      0.16326833	      1.07345361	      0.26575411	     18.20093268	     -4.11033692	     -6.17123357	    -67.90092882	      3.81241135	      1.88948920	      9.40343111	     13.42899931	      1.51959351	      1.46003079	    -23.26037966	     13.75870025	      3.17410127	      4.30545899	    -11.40520671	     -2.05848192	      0.22508333
      1.17333333	     -0.45925538	      0.74394773	     -4.59055325	      0.16888404	      1.07485278	      0.26579034	     18.62798185	     -3.83012998	     -6.32522120	    -67.16420411	      4.12770454	      2.19007505	      9.43602472	     12.85265061	      1.34776130	      1.45560699	    -22.77902690	     13.84562061	      3.23017390	      4.31536960	    -11.38507707	     -1.86151330	      0.18955978
      1.17750000	     -0.44768041	      0.60226726	     -4.58585310	      0.17449164	      1.07621720	      0.26578975	     19.01805947	     -3.59092251	     -6.49383786	    -66.38807632	      4.45495508	      2.52728801	      9.48392730	     12.24867334	      1.21003233	      1.46819133	    -22.28463679	     13.95329084	      3.29012336	      4.33049013	    -11.39115606	     -1.67806181	      0.12124180
      1.18166667	     -0.43952995	      0.44947852	     -4.57401276	      0.18008531	      1.07754258	      0.26579166	     19.39089602	     -3.33557072	     -6.66395917	    -65.54825503	      4.76495518	      2.83204982	      9.53383005	     11.65359170	      1.06015208	      1.48580482	    -21.79674215	     14.03620294	      3.32824949	      4.34462271	    -11.39754069	     -1.48372097	      0.06034038
      1.18583333	     -0.43613730	      0.29719314	     -4.55716982	      0.18566639	      1.07878415	      0.26578729	     19.75464767	     -3.08210064	     -6.83566373	    -64.66065419	      5.06608325	      3.12174606	      9.58132638	     11.07033222	      0.90993112	      1.50217032	    -21.31809028	     14.12240165	      3.36616466	      4.35747444	    -11.39772496	     -1.29045807	      0.00171573
      1.19000000	     -0.45051926	      0.14242898	     -4.53272042	      0.19126292	      1.07994964	      0.26577053	     20.11838481	     -2.82557351	     -7.01060437	    -63.72000207	      5.35009684	      3.39159678	      9.63216885	     10.50970751	      0.75781394	      1.52825185	    -20.84566829	     14.20403861	      3.40150797	      4.37080560	    -11.37852887	     -1.08991676	     -0.06682877
      1.19416667	     -0.49551920	     -0.00663610	     -4.50829224	      0.19684795	      1.08097412	      0.26577997	     20.50387669	     -2.56704712	     -7.17453744	    -62.73876616	      5.62917541	      3.62221649	      9.66596565	      9.99522802	      0.60475284	      1.53666097	    -20.39426728	     14.26678101	      3.43279716	      4.37841561	    -11.32451401	     -0.89917293	     -0.10870210
      1.19833333	     -0.51092611	     -0.15161876	     -4.47204076	      0.20241660	      1.08198598	      0.26575593	     20.83909646	     -2.32484285	     -7.35026504	    -61.70797282	      5.90103292	      3.86609306	      9.70192030	      9.45280103	      0.46243550	      1.56070700	    -19.94421769	     14.34712353	      3.46326844	      4.38708786	    -11.30651179	     -0.71142375	     -0.17239571
      1.20250000	     -0.54850977	     -0.28082578	     -4.43497445	      0.20797987	      1.08287285	      0.26573869	     21.18940372	     -2.09809940	     -7.51713181	    -60.64378304	      6.16472931	      4.09428174	      9.73887142	      8.94023139	      0.33531996	      1.58728796	    -19.49955615	     14.42411957	      3.48540121	      4.39600009	    -11.26511592	     -0.53487775	     -0.24770047
      1.20666667	     -0.56723416	     -0.40984866	     -4.39410886	      0.21352836	      1.08372770	      0.26572171	     21.50181341	     -1.87489081	     -7.68303465	    -59.53258038	      6.41739462	      4.30715166	      9.77513473	      8.41380218	      0.20970050	      1.61537489	    -19.06394056	     14.49571223	      3.50242059	      4.40467716	    -11.24815679	     -0.35788884	     -0.32502905
      1.21083333	     -0.63088302	     -0.51357626	     -4.36554098	      0.21908928	      1.08439959	      0.26572241	     21.86178540	     -1.67284782	     -7.82651184	    -58.40422980	      6.65643104	      4.47338160	      9.80108217	      7.93590955	      0.10656357	      1.63087159	    -18.62268963	     14.57380688	      3.53289892	      4.41123669	    -11.17560798	     -0.19474560	     -0.38053906
      1.21500000	     -0.67162317	     -0.65068607	     -4.30236675	      0.22460820	      1.08505929	      0.26568183	     22.15975805	     -1.44569593	     -7.99958109	    -57.19737510	      6.88459153	      4.68409512	      9.83676354	      7.46647480	     -0.02975642	      1.66796818	    -18.24804397	     14.65355462	      3.53854451	      4.42057824	    -11.14341007	     -0.02230487	     -0.47350460
      1.21916667	     -0.70941455	     -0.74675440	     -4.24811789	      0.23012940	      1.08562624	      0.26565006	     22.45464680	     -1.26612381	     -8.15618335	    -55.97857709	      7.09979584	      4.86726689	      9.89525676	      6.98357019	     -0.11789295	      1.72358012	    -17.84237272	     14.74744699	      3.53612073	      4.43744014	    -11.10834644	      0.12458256	     -0.62151289
